<?xml version="1.0" encoding="UTF-8"?>
<svg width="192px" height="192px" viewBox="0 0 192 192" version="1.1" xmlns="http://www.w3.org/2000/svg" xmlns:xlink="http://www.w3.org/1999/xlink">
    <title>Jobport 2.0 Icon (v1.4 - 2022) DEF</title>
    <defs>
        <linearGradient x1="0%" y1="43.3324768%" x2="71.9844006%" y2="99.8083929%" id="linearGradient-1">
            <stop stop-color="#3060B2" offset="0%"></stop>
            <stop stop-color="#3060B2" stop-opacity="0.7" offset="100%"></stop>
        </linearGradient>
        <radialGradient cx="0%" cy="0%" fx="0%" fy="0%" r="159.254612%" gradientTransform="translate(0.000000,0.000000),scale(0.403409,1.000000),rotate(38.897220),translate(-0.000000,-0.000000)" id="radialGradient-2">
            <stop stop-color="#4A99E6" offset="0%"></stop>
            <stop stop-color="#3C91E5" offset="100%"></stop>
        </radialGradient>
        <linearGradient x1="50%" y1="0%" x2="50%" y2="100%" id="linearGradient-3">
            <stop stop-color="#59A1E8" offset="0%"></stop>
            <stop stop-color="#76B1EC" offset="100%"></stop>
        </linearGradient>
    </defs>
    <g id="Jobport-2.0-Icon-(v1.4---2022)-DEF" stroke="none" stroke-width="1" fill="none" fill-rule="evenodd">
        <rect fill="#FFFFFF" x="0" y="0" width="192" height="192"></rect>
        <g transform="translate(8.000000, 14.000000)">
            <path d="M0,36 L176,36 L176,152 C176,158.627417 170.627417,164 164,164 L12,164 C5.372583,164 8.11624501e-16,158.627417 0,152 L0,36 L0,36 Z" id="Main-bag" fill="#3471C4"></path>
            <path d="M91.429009,164 L163.934834,164 C170.597822,164 176,158.627 176,152 L176,36 C176,36.9238316 175.893122,37.8445731 175.681878,38.7439288 L165.87727,79.48632 C164.792043,84.1065927 161.085718,87.6531818 156.422147,88.533943 C133.597256,92.8446477 110.772365,95 87.947474,95 C65.1285064,95 42.3095388,92.8457666 19.4905712,88.537299 C17.187951,88.1025394 15.1188796,87.0179647 13.4833691,85.475357 L91.429009,164 Z" id="Main-bag-(Shadow)" fill="url(#linearGradient-1)"></path>
            <path d="M12.051174,24 L163.950967,24 C170.578384,24 175.950967,29.372583 175.950967,36 C175.950967,36.9364057 175.841361,37.869593 175.624387,38.7805144 L165.899883,79.6068533 C164.800791,84.2211497 161.086775,87.7550059 156.423571,88.6234841 C133.598205,92.8744947 110.77284,95 87.947474,95 C65.1281038,95 42.3087336,92.8756111 19.4893633,88.6268334 C14.816933,87.7568626 11.0982297,84.2112695 10.0066851,79.585582 L0.371942262,38.7560017 C-1.15015547,32.3057402 2.84491069,25.842866 9.29517228,24.3207682 C10.1983465,24.1076421 11.1231943,24 12.051174,24 Z" id="Closing-lit" fill="url(#radialGradient-2)"></path>
            <path d="M80,76 L96,76 C100.418278,76 104,79.581722 104,84 L104,100 C104,104.418278 100.418278,108 96,108 L80,108 C75.581722,108 72,104.418278 72,100 L72,84 C72,79.581722 75.581722,76 80,76 Z" id="Locking-clip" fill="#C4DDF7"></path>
            <path d="M108,0.359280153 C108.431944,0.555847041 108.829541,0.829540598 109.171573,1.17157288 L118.828427,10.8284271 C119.578573,11.5785726 120,12.5959883 120,13.6568542 L120,24 L108,24 L108,0.359280153 L108,0.359280153 Z" id="Steals-2/2" fill="url(#linearGradient-3)"></path>
            <path d="M66.8284271,1.17157288 L57.1715729,10.8284271 C56.4214274,11.5785726 56,12.5959883 56,13.6568542 L56,24 L68,24 L68,0.359280153 C67.5680557,0.555847041 67.1704594,0.829540598 66.8284271,1.17157288 Z" id="Steals-1/2" fill="url(#linearGradient-3)"></path>
            <path d="M70,0 L106,0 C106.577159,0 107.484604,0.124736358 108,0.359280153 L108,16 C108,13.790861 106.209139,12 104,12 L72,12 C69.790861,12 68,13.790861 68,16 L68,0.359280153 C68.5153964,0.124736358 69.4228407,0 70,0 Z" id="Grip" fill="#3984D7"></path>
        </g>
    </g>
</svg>